<svg xmlns="http://www.w3.org/2000/svg" width="21.893" height="13.942" viewBox="0 0 21.893 13.942"><path d="M748.065-147.3c-1.518.023-3.036.023-4.554.023-.434,0-.878-.023-1.3,0-.091,0-.228.1-.228.16-.011.879-.011,1.758-.011,2.671h3.71a1.869,1.869,0,0,1-.126.445,3.584,3.584,0,0,1-4.189,2.215,4.081,4.081,0,0,1-3.345-4.863,4.357,4.357,0,0,1,.274-.948,4.1,4.1,0,0,1,4.566-2.294,3.769,3.769,0,0,1,1.745.9l2.044-2.043a1,1,0,0,1-.171-.148,6.677,6.677,0,0,0-5.639-1.541,6.908,6.908,0,0,0-5.707,5.685,6.872,6.872,0,0,0,.343,3.687,7.026,7.026,0,0,0,7.339,4.418,6.216,6.216,0,0,0,4.03-1.884,7.125,7.125,0,0,0,1.769-6.038c-.046-.376-.194-.444-.548-.444Zm6.906.217h-.457v-.411c0-.582.011-1.165,0-1.758,0-.092-.114-.263-.16-.263-.525-.023-1.062-.023-1.62-.023v2.431H750.28v.446c.023.434.035.878.068,1.312.423.023.845.045,1.29.045.354.011.719,0,1.107,0v2.4c.606-.011,1.165,0,1.77,0v-2.4h2.4v-1.78Z" transform="translate(-735.021 152.832)" fill="#fff" fill-rule="evenodd"/></svg>