<svg xmlns="http://www.w3.org/2000/svg" viewBox="0 0 17.54 14.37"><defs><style>.cls-1{fill:#fff;fill-rule:evenodd;}</style></defs><g id="Layer_2" data-name="Layer 2"><g id="Layer_1-2" data-name="Layer 1"><path class="cls-1" d="M17.45,1.94A7.26,7.26,0,0,1,16,3.48a.27.27,0,0,0-.14.29,10.53,10.53,0,0,1-2.52,7.07,9.55,9.55,0,0,1-6,3.39,10.38,10.38,0,0,1-7.2-1.4A.35.35,0,0,0,0,12.78a7.63,7.63,0,0,0,3.77-.64,6.48,6.48,0,0,0,1.51-.9,3.63,3.63,0,0,1-1.55-.4A3.69,3.69,0,0,1,2,8.93c-.08-.21-.08-.21.16-.19a2.85,2.85,0,0,0,1.32-.1,4.24,4.24,0,0,1-.87-.32A3.62,3.62,0,0,1,.65,5.24c0-.17,0-.18.18-.11a3.28,3.28,0,0,0,1.42.37A6.9,6.9,0,0,1,1.63,5,3.68,3.68,0,0,1,1.07.85c.08-.17.12-.17.25,0a10.29,10.29,0,0,0,6.3,3.52l.81.09c.17,0,.2-.05.17-.2A3.63,3.63,0,0,1,14.67,1a.36.36,0,0,0,.39.1A7.67,7.67,0,0,0,17,.35a.65.65,0,0,0,.15-.09,3.68,3.68,0,0,1-1.53,2,6.76,6.76,0,0,0,1.94-.51A.22.22,0,0,1,17.45,1.94Z"/></g></g></svg>