<svg xmlns="http://www.w3.org/2000/svg" viewBox="0 0 12.81 13.14"><defs><style>.cls-1{fill:#5d5d5d;}.cls-2{fill:#fff;}</style></defs><g id="Layer_2" data-name="Layer 2"><g id="Layer_1-2" data-name="Layer 1"><path class="cls-1" d="M2.53,8.76a1.72,1.72,0,0,0-.22,3.06,4,4,0,0,0,2.13.61A3.18,3.18,0,0,0,6,12.14a1.65,1.65,0,0,0,1-1.36A2.87,2.87,0,0,0,5,8.31,4.59,4.59,0,0,0,2.53,8.76Z"/><path class="cls-2" d="M7.12,1.48A2.64,2.64,0,0,1,6.69,5a4.94,4.94,0,0,0-.75.7A.8.8,0,0,0,6.05,7c.36.29.76.58,1.11.91a2.61,2.61,0,0,1-.07,4.18,5.86,5.86,0,0,1-5.95.47A2.16,2.16,0,0,1,.92,8.87a6,6,0,0,1,3.21-1h.46a1.7,1.7,0,0,1-.44-1.62C4.26,5.85,4,6,3.84,6A2.72,2.72,0,0,1,1.35,4.86,2.92,2.92,0,0,1,2.7.56,4.63,4.63,0,0,1,4.56.11H8.4a2.3,2.3,0,0,1-2,.58C6.71,1,6.94,1.24,7.12,1.48Z"/><polygon class="cls-2" points="12.81 2.63 11.23 2.63 11.23 4.18 10.2 4.18 10.2 2.63 8.63 2.63 8.63 1.55 10.2 1.55 10.2 0 11.23 0 11.23 1.55 12.81 1.55 12.81 2.63"/><path class="cls-1" d="M3.44.74A1.52,1.52,0,0,0,2.38,2.11a3.68,3.68,0,0,0,.73,2.68A1.58,1.58,0,0,0,5,5.42c.73-.24,1.06-.78,1-1.85a3.89,3.89,0,0,0-1-2.38A1.58,1.58,0,0,0,3.44.74Z"/><path class="cls-1" d="M1.84,11a1.55,1.55,0,0,0,1.28,1.18,3.74,3.74,0,0,0,2.73-.51,1.59,1.59,0,0,0,.79-1.88C6.46,9,6,8.62,4.88,8.54a3.85,3.85,0,0,0-2.45.78A1.56,1.56,0,0,0,1.84,11Z"/></g></g></svg>