<svg xmlns="http://www.w3.org/2000/svg" viewBox="0 0 27.01 25.44"><defs><style>.cls-1{fill:#fff;}</style></defs><title>Asset 1</title><g id="Layer_2" data-name="Layer 2"><g id="Layer_1-2" data-name="Layer 1"><path class="cls-1" d="M1.76,12.65,4.18,25.44H22.83l2.42-12.79Zm19.62,10H5.63a.57.57,0,1,1,0-1.14H21.38a.57.57,0,1,1,0,1.14Zm.48-3.06H5.15a.57.57,0,1,1,0-1.13H21.86a.57.57,0,0,1,0,1.13Zm.48-3.07H4.67a.56.56,0,1,1,0-1.11H22.34a.56.56,0,0,1,0,1.11Z"/><path class="cls-1" d="M11,1.61A1.61,1.61,0,1,1,9.42,0,1.61,1.61,0,0,1,11,1.61Z"/><path class="cls-1" d="M19.19,1.61A1.61,1.61,0,1,1,17.58,0,1.61,1.61,0,0,1,19.19,1.61Z"/><path class="cls-1" d="M25.94,7.7H22.05l.13.29a1.71,1.71,0,0,1-.9,2.24,1.58,1.58,0,0,1-.67.14,1.69,1.69,0,0,1-1.57-1L18.33,7.7H8.67L8,9.34a1.7,1.7,0,0,1-1.57,1,1.55,1.55,0,0,1-.67-.14A1.7,1.7,0,0,1,4.83,8L5,7.7H0v3.68H27V7.7Z"/><path class="cls-1" d="M7.83,3.4l-2.12,5a.75.75,0,0,0,.39,1h0a.76.76,0,0,0,1-.4L9.22,4A2.41,2.41,0,0,1,7.83,3.4Z"/><path class="cls-1" d="M21.3,8.37l-2.13-5a2.38,2.38,0,0,1-1.39.6l2.13,5a.75.75,0,0,0,1,.4A.74.74,0,0,0,21.3,8.37Z"/></g></g></svg>