<svg xmlns="http://www.w3.org/2000/svg" viewBox="0 0 23.49 22.13"><defs><style>.cls-1{fill:#5d5d5d;}</style></defs><title>Asset 7</title><g id="Layer_2" data-name="Layer 2"><g id="Layer_1-2" data-name="Layer 1"><path class="cls-1" d="M1.53,11l2.1,11.13H19.85L22,11Zm17.06,8.71H4.89a.49.49,0,0,1,0-1h13.7a.49.49,0,1,1,0,1ZM19,17.05H4.48a.49.49,0,1,1,0-1H19a.49.49,0,0,1,0,1Zm.42-2.67H4.06a.47.47,0,0,1-.48-.48.48.48,0,0,1,.48-.48H19.43a.48.48,0,0,1,.48.48A.47.47,0,0,1,19.43,14.38Z"/><path class="cls-1" d="M9.59,1.4A1.4,1.4,0,1,1,8.2,0,1.4,1.4,0,0,1,9.59,1.4Z"/><path class="cls-1" d="M16.69,1.4A1.4,1.4,0,1,1,15.29,0,1.4,1.4,0,0,1,16.69,1.4Z"/><path class="cls-1" d="M22.56,6.7H19.18l.11.25a1.49,1.49,0,0,1-.78,2,1.52,1.52,0,0,1-.59.12,1.47,1.47,0,0,1-1.36-.9L15.94,6.7H7.54L6.93,8.12A1.49,1.49,0,0,1,5,8.9,1.49,1.49,0,0,1,4.2,7l.11-.25H0V9.9H23.49V6.7Z"/><path class="cls-1" d="M6.81,3,5,7.28a.65.65,0,0,0,.35.86h0a.65.65,0,0,0,.86-.35L8,3.48A2.11,2.11,0,0,1,6.81,3Z"/><path class="cls-1" d="M18.53,7.28,16.67,3a2.05,2.05,0,0,1-1.2.52l1.85,4.31a.65.65,0,0,0,.86.35A.66.66,0,0,0,18.53,7.28Z"/></g></g></svg>