<svg xmlns="http://www.w3.org/2000/svg" xmlns:xlink="http://www.w3.org/1999/xlink" viewBox="0 0 26.75 26.82"><defs><style>.cls-1{fill:url(#linear-gradient);}.cls-2{fill:url(#linear-gradient-2);}.cls-3{fill:url(#linear-gradient-4);}.cls-4{fill:#1a214e;}.cls-5{fill:#fff;}</style><linearGradient id="linear-gradient" x1="0.15" y1="13.45" x2="26.75" y2="13.45" gradientUnits="userSpaceOnUse"><stop offset="0.01" stop-color="#bc7521"/><stop offset="0.53" stop-color="#f0b74c"/><stop offset="0.98" stop-color="#f0b74c"/></linearGradient><linearGradient id="linear-gradient-2" x1="0" y1="13.45" x2="26.6" y2="13.45" xlink:href="#linear-gradient"/><linearGradient id="linear-gradient-4" x1="0.15" y1="13.3" x2="26.75" y2="13.3" xlink:href="#linear-gradient"/></defs><title>Asset 4</title><g id="Layer_2" data-name="Layer 2"><g id="Layer_1-2" data-name="Layer 1"><rect class="cls-1" x="0.15" y="0.15" width="26.6" height="26.6" rx="5.46"/><rect class="cls-2" y="0.15" width="26.6" height="26.6" rx="5.46"/><rect class="cls-1" x="0.15" y="0.15" width="26.6" height="26.6" rx="5.46"/><rect class="cls-3" x="0.15" width="26.6" height="26.6" rx="5.46"/><rect class="cls-4" x="0.15" y="0.15" width="26.6" height="26.6" rx="5.46"/><path class="cls-5" d="M20.6,7.48h2.46V3.61H19.38a5,5,0,0,0-3.79,1.86s-1,1-1,3.73h0v2.9H10.94v4.11h3.63V26.82h4.19V16.21h3.61l.5-4.11H18.76V9.2h0A1.69,1.69,0,0,1,20.6,7.48Z"/></g></g></svg>