<svg xmlns="http://www.w3.org/2000/svg" viewBox="0 0 26.6 26.6"><defs><style>.cls-1{fill:#d81d25;}.cls-2{fill:#fff;}</style></defs><title>Asset 5</title><g id="Layer_2" data-name="Layer 2"><g id="Layer_1-2" data-name="Layer 1"><rect class="cls-1" width="26.6" height="26.6" rx="5.46"/><path class="cls-2" d="M15.55,12.52H10.19v1.92H13.4a3.45,3.45,0,1,1-3.25-4.63,3.41,3.41,0,0,1,2.19.8h.09l1.41-1.44a5.42,5.42,0,0,0-3.69-1.44,5.57,5.57,0,0,0,0,11.14,5.2,5.2,0,0,0,1.18-.13,5.38,5.38,0,0,0,2.16-1A5.6,5.6,0,0,0,15,15.89a6.1,6.1,0,0,0,.44-1.14,5.77,5.77,0,0,0,.1-1.5Z"/><polygon class="cls-2" points="21.89 12.77 20.26 12.77 20.26 11.14 18.82 11.14 18.82 12.77 17.19 12.77 17.19 14.22 18.82 14.22 18.82 15.66 20.26 15.66 20.26 14.22 21.89 14.22 21.89 12.77"/></g></g></svg>