<svg xmlns="http://www.w3.org/2000/svg" viewBox="0 0 15.97 14.95"><defs><style>.cls-1{fill:#e9e9e9;}</style></defs><g id="Layer_2" data-name="Layer 2"><g id="Layer_1-2" data-name="Layer 1"><path class="cls-1" d="M15.09,1.66c-.44,0-.88,0-1.31,0H3.87c-.14,0-.21,0-.22-.19S3.57,1,3.52.73A.8.8,0,0,0,2.76,0c-.67,0-1.33,0-2,0A.77.77,0,0,0,0,.61a.79.79,0,0,0,.32.89,1.09,1.09,0,0,0,.49.16c.39,0,.77,0,1.16,0l.21,1.27q.66,3.95,1.31,7.87a.88.88,0,0,0,1,.82h9a.81.81,0,0,0,.79-1,.86.86,0,0,0-.87-.65H5.06l-.14-.84h9.42a.84.84,0,0,0,.8-.72l.15-1c.22-1.57.43-3.14.67-4.71A.86.86,0,0,0,15.09,1.66Z"/><path class="cls-1" d="M13.07,12.46a1.25,1.25,0,0,0-1.24,1.24,1.25,1.25,0,1,0,1.24-1.24Z"/><path class="cls-1" d="M5.63,12.46a1.25,1.25,0,0,0-1.27,1.21A1.27,1.27,0,0,0,5.59,15a1.25,1.25,0,0,0,0-2.49Z"/></g></g></svg>