<svg xmlns="http://www.w3.org/2000/svg" viewBox="0 0 17.94 17.07"><defs><style>.cls-1{fill:#e9e9e9;}</style></defs><g id="Layer_2" data-name="Layer 2"><g id="Layer_1-2" data-name="Layer 1"><path class="cls-1" d="M6.76,7.39h3.41a.73.73,0,0,0,.67-.9A.76.76,0,0,0,10,5.89H3.5l-.22,0a.75.75,0,0,0,.2,1.48Zm0-2.49H8.08c.7,0,1.4,0,2.1,0a.72.72,0,0,0,.67-.64.74.74,0,0,0-.48-.79,1.33,1.33,0,0,0-.4,0H3.3A.75.75,0,0,0,3.49,4.9Zm0,4.93h3.4a.72.72,0,0,0,.69-.64.71.71,0,0,0-.52-.77,1.34,1.34,0,0,0-.35,0H3.54a1.32,1.32,0,0,0-.28,0,.72.72,0,0,0,.18,1.43Zm.37.92H3.37a.72.72,0,0,0-.7.75.73.73,0,0,0,.77.71H5.79c.1,0,.14,0,.18-.13s.12-.25.19-.37A2.81,2.81,0,0,1,7.13,10.75Zm3.67,1a.7.7,0,0,0-.39-.9,2.35,2.35,0,0,0-.79-.06Z"/><path class="cls-1" d="M0,1.25A3.79,3.79,0,0,1,.29.6,1.44,1.44,0,0,1,1.55,0H11.79a1.51,1.51,0,0,1,1.59,1.62c0,2.58,0,5.16,0,7.74a.54.54,0,0,1-.1.3c-.45.54-.9,1.07-1.4,1.6v-.19q0-4.17,0-8.32a1.11,1.11,0,0,0-.67-1.13,1.39,1.39,0,0,0-.57-.12H2.74a1.15,1.15,0,0,0-1.21.88,1.31,1.31,0,0,0,0,.34c0,3.39,0,6.78,0,10.16a1.2,1.2,0,0,0,1.25,1.24c1,0,2.07,0,3.1,0,.07,0,.17,0,.19.09a3.66,3.66,0,0,0,.9,1.06c.14.11.27.23.44.38H1.62A1.54,1.54,0,0,1,0,14.4l0-.05Z"/><path class="cls-1" d="M17.94,10a2.6,2.6,0,0,1-.64,1c-1.59,1.85-3.16,3.71-4.74,5.56a1.31,1.31,0,0,1-1.94.17l-3-2.61a1.31,1.31,0,1,1,1.7-2l2,1.68.13.1,1.17-1.37L15.6,9A1.3,1.3,0,0,1,17,8.49a1.25,1.25,0,0,1,1,1l0,0Z"/><path class="cls-1" d="M6.76,7.39H3.48a.75.75,0,0,1-.2-1.48l.22,0H10a.76.76,0,0,1,.82.59.73.73,0,0,1-.67.9H6.76Z"/><path class="cls-1" d="M6.76,4.9H3.49A.75.75,0,0,1,3.3,3.42H10a1.33,1.33,0,0,1,.4,0,.74.74,0,0,1,.48.79.72.72,0,0,1-.67.64c-.7,0-1.4,0-2.1,0Z"/><path class="cls-1" d="M6.76,9.83H3.44A.72.72,0,0,1,3.26,8.4a1.32,1.32,0,0,1,.28,0H10a1.34,1.34,0,0,1,.35,0,.71.71,0,0,1,.52.77.72.72,0,0,1-.69.64H6.76Z"/><path class="cls-1" d="M7.13,10.75a2.81,2.81,0,0,0-1,1c-.07.12-.13.25-.19.37s-.08.13-.18.13H3.44a.73.73,0,0,1-.77-.71.72.72,0,0,1,.7-.75Z"/><path class="cls-1" d="M10.8,11.71l-1.18-1a2.35,2.35,0,0,1,.79.06A.7.7,0,0,1,10.8,11.71Z"/></g></g></svg>